<svg version="1.1" id="Layer_1" xmlns="http://www.w3.org/2000/svg" xmlns:xlink="http://www.w3.org/1999/xlink" x="0px" y="0px"
	 width="100%" viewBox="0 0 496 496" enable-background="new 0 0 496 496" xml:space="preserve">
<path fill="#000000" opacity="1.000000" stroke="none" 
	d="
M233.004364,281.303040 
	C195.433228,283.145264 158.349792,285.337616 121.187477,285.305481 
	C119.235649,285.303802 117.196266,285.776428 114.425476,284.222534 
	C118.900810,281.988800 123.271004,282.377502 127.262314,281.931366 
	C162.840179,277.954926 198.547653,275.432007 234.229935,272.610779 
	C240.645340,272.103546 246.938431,270.101166 253.301880,268.860321 
	C256.035736,268.327209 255.869232,266.306274 256.001404,264.270782 
	C256.615143,254.818863 256.310883,245.269287 258.817810,236.010620 
	C259.905884,231.992157 261.056702,227.980392 263.321869,224.418167 
	C269.256012,215.085999 278.988373,213.531219 290.880768,217.406418 
	C298.872559,220.010590 304.163757,226.070221 308.954468,232.586594 
	C312.110657,236.879669 315.048218,241.336868 318.285828,245.565796 
	C321.999969,250.417130 326.067932,251.047394 331.369537,247.914932 
	C339.187805,243.295517 343.621094,232.529770 341.155426,223.599808 
	C338.558136,214.192902 332.145752,207.736893 323.921295,203.150269 
	C318.412964,200.078369 314.768494,202.125076 313.310394,208.345413 
	C312.469086,211.934479 311.936218,215.532211 312.848907,219.220520 
	C313.309235,221.080948 313.409393,223.240433 310.972992,223.601044 
	C308.512512,223.965210 307.965424,221.673325 307.862885,219.915619 
	C307.524567,214.118530 306.825775,208.252716 309.848206,202.803848 
	C312.554291,197.925262 317.008270,195.791763 322.396454,196.966690 
	C342.343964,201.316391 353.278778,228.328156 341.822632,245.052612 
	C339.132935,248.979233 335.589813,251.990234 331.120453,253.755447 
	C324.359894,256.425629 319.205750,255.089737 314.744354,249.318420 
	C309.959167,243.128235 305.386444,236.774231 300.638245,230.554916 
	C299.021332,228.437042 297.137115,226.512665 294.804749,225.144577 
	C282.253906,217.782700 269.034241,216.779755 264.101929,236.527878 
	C261.866638,245.477585 261.378906,254.601364 261.301270,263.781036 
	C261.275726,266.804932 262.526917,268.029175 265.473663,267.902893 
	C270.824646,267.673553 276.144379,268.120544 281.363220,269.279510 
	C284.057800,269.877960 287.638275,270.235962 287.924561,273.649963 
	C288.224274,277.224091 284.592041,277.726410 282.027008,278.729431 
	C277.175568,280.626404 272.033447,281.289551 266.915741,281.893005 
	C263.656525,282.277344 262.513306,283.229126 262.977509,286.950958 
	C264.066071,295.678955 267.880890,303.111267 272.436279,310.349304 
	C274.256195,313.240997 277.750397,316.098907 272.780304,319.462677 
	C272.070679,319.942902 272.288055,321.966492 272.278076,323.277313 
	C272.229919,329.610138 272.227600,335.943604 272.257294,342.276581 
	C272.271149,345.235535 271.598114,348.461823 276.556274,350.212341 
	C271.746155,351.865082 268.462585,351.414886 264.228943,350.812012 
	C268.118103,348.040802 267.714386,344.523285 267.693970,341.075897 
	C267.653473,334.242950 268.070709,327.378418 267.534576,320.587280 
	C267.165314,315.910278 266.670349,311.057251 264.236420,306.759491 
	C260.740570,300.586761 258.735046,293.868866 257.878876,286.897461 
	C257.465424,283.530914 256.275696,282.372711 252.906509,282.320007 
	C246.427063,282.218658 239.954712,281.662323 233.004364,281.303040 
M263.966003,277.064728 
	C269.552551,276.733459 275.133209,276.374420 281.209015,273.839691 
	C275.368439,272.187042 270.430084,272.019806 265.486389,272.761017 
	C263.210144,273.102264 260.931580,273.874664 263.966003,277.064728 
M249.457367,274.219879 
	C246.972519,274.418640 244.419907,274.398010 242.054443,276.190948 
	C244.890427,277.713928 247.551697,277.900513 250.162033,277.636169 
	C252.358658,277.413666 256.327332,279.023071 256.219086,275.597351 
	C256.096039,271.701996 252.348465,274.612976 249.457367,274.219879 
z"/>
<path fill="#000000" opacity="1.000000" stroke="none" 
	d="
M412.229736,366.140503 
	C409.774292,368.606476 407.148499,369.959076 404.058350,370.245789 
	C399.589569,370.660370 395.292023,370.353516 392.587524,366.051422 
	C390.555481,362.819000 391.548340,359.253082 395.565338,354.438568 
	C391.849487,349.248444 391.849487,349.248444 395.796783,344.039948 
	C395.852570,342.564697 394.547882,341.799133 393.926117,340.667175 
	C391.075348,335.476898 393.203674,329.584656 398.659149,327.621674 
	C401.773438,326.501068 411.557709,327.336182 415.498230,329.312561 
	C411.830444,330.341766 411.101074,332.669769 411.183960,335.920807 
	C411.313507,341.002197 408.088531,343.671844 403.414276,344.884888 
	C401.273163,345.440521 398.563812,345.188599 397.954193,348.579498 
	C399.645691,350.713562 402.156311,350.651886 404.593567,350.627960 
	C408.519470,350.589447 412.550598,350.630524 414.556976,354.714783 
	C416.540649,358.752686 414.970856,362.463531 412.229736,366.140503 
M409.326233,356.174774 
	C406.706635,354.338593 403.860535,353.880829 400.880524,355.040039 
	C397.963379,356.174774 396.615417,358.576599 396.342072,361.557617 
	C396.144897,363.707581 396.980957,365.638336 399.052551,366.382263 
	C402.160919,367.498505 405.345642,367.221375 407.941864,365.046509 
	C410.563293,362.850555 411.728973,360.072540 409.326233,356.174774 
M399.443390,330.793549 
	C398.068054,331.886871 397.402802,333.329956 397.319397,335.068268 
	C397.206390,337.424164 397.210358,339.788605 399.502716,341.226257 
	C401.014832,342.174591 402.709045,342.122437 404.154846,341.058655 
	C406.191589,339.560028 406.873749,337.370056 406.607635,334.942352 
	C406.178375,331.026093 404.024323,329.437103 399.443390,330.793549 
z"/>
<path fill="#000000" opacity="1.000000" stroke="none" 
	d="
M325.419861,346.120544 
	C325.580261,348.377991 328.001648,348.612549 328.310486,350.759491 
	C325.096222,351.878235 321.911438,351.368958 319.350281,351.077393 
	C321.636841,338.494629 321.211060,326.190521 319.132324,313.737610 
	C320.020111,311.881256 322.078979,311.424652 324.756226,311.941742 
	C326.135162,317.073853 324.692047,322.443909 325.621735,327.514191 
	C327.204803,328.841888 328.644531,327.784302 330.003082,327.520844 
	C336.463837,326.268036 339.847626,328.779907 340.252167,335.394745 
	C340.394104,337.716431 340.401764,340.058197 340.282196,342.381073 
	C340.124237,345.448669 340.297150,348.327454 344.049683,350.454163 
	C339.854095,351.898590 336.548431,351.376984 332.545410,350.932159 
	C337.553650,345.939819 335.471863,340.146149 335.482971,334.739136 
	C335.488190,332.194366 333.661011,330.297546 330.811737,330.758881 
	C328.276398,331.169373 325.268616,331.397186 325.335541,335.233826 
	C325.396484,338.727325 325.367035,342.222443 325.419861,346.120544 
z"/>
<path fill="#000000" opacity="1.000000" stroke="none" 
	d="
M250.430115,319.398590 
	C243.864075,318.741150 239.775436,321.713989 237.542404,327.170471 
	C234.862366,333.719177 235.928101,340.001617 240.400681,345.396576 
	C243.529373,349.170502 247.784637,349.891632 252.619537,348.850952 
	C256.632050,347.987305 257.415070,344.247925 259.882660,341.405762 
	C261.856567,345.166565 262.156952,348.244507 258.235107,350.043732 
	C251.566605,353.102997 244.726944,353.857849 238.336212,349.376190 
	C232.371429,345.193176 229.711456,336.100739 232.020752,328.215302 
	C234.118240,321.053101 239.251495,317.306854 246.476044,316.268280 
	C250.375458,315.707672 254.063339,316.660645 257.595367,318.240723 
	C261.976074,320.200409 261.627747,323.470001 260.219391,328.196411 
	C256.911346,324.505005 255.377625,320.166260 250.430115,319.398590 
z"/>
<path fill="#000000" opacity="1.000000" stroke="none" 
	d="
M88.846794,352.719788 
	C88.830399,342.941681 88.832153,333.624115 88.788712,324.306793 
	C88.771660,320.648163 87.968185,318.112427 83.536789,320.729309 
	C82.088242,321.584625 80.391975,321.948120 78.883118,320.664642 
	C78.200996,320.084381 77.921585,319.239166 78.278954,318.410309 
	C79.116646,316.467499 80.937996,316.637085 82.569748,316.687103 
	C87.152649,316.827698 91.782715,316.164276 97.136810,317.328186 
	C93.455566,320.187012 94.130287,323.751495 94.117851,327.140961 
	C94.088562,335.127258 94.243858,343.117096 94.055832,351.099152 
	C93.881981,358.479156 91.555069,361.704712 86.305939,362.800751 
	C84.434128,363.191589 82.637375,363.321533 81.203278,361.799622 
	C80.597336,361.156555 80.442566,360.198181 80.969490,359.482697 
	C82.457092,357.462708 84.227264,358.730164 85.927834,359.182312 
	C86.388382,359.304718 86.896011,359.250122 87.374184,359.276337 
	C89.383980,357.562531 88.601822,355.246948 88.846794,352.719788 
z"/>
<path fill="#000000" opacity="1.000000" stroke="none" 
	d="
M378.237732,349.049988 
	C381.037354,343.707550 379.836151,338.421906 379.207184,333.234192 
	C379.000519,331.529633 377.272552,330.376129 375.416748,330.682739 
	C373.186066,331.051300 369.944458,331.129181 369.791321,333.880096 
	C369.482819,339.420807 367.216431,345.484039 372.782471,350.544861 
	C369.239655,352.102905 365.922546,351.063538 362.425323,351.174011 
	C366.244659,343.712585 365.662781,336.742279 362.870880,329.164337 
	C363.946960,327.828735 366.229645,327.173096 368.179047,327.815582 
	C370.491394,328.577667 372.411774,327.924652 374.472961,327.486206 
	C380.681610,326.165497 384.024750,328.723267 384.309143,335.118500 
	C384.390411,336.946655 384.350830,338.781372 384.328827,340.612640 
	C384.285614,344.210144 383.750214,347.936249 388.086365,350.553223 
	C384.264038,351.806458 381.312408,351.384064 378.404816,351.112579 
	C377.250854,351.004852 377.327118,350.120758 378.237732,349.049988 
z"/>
<path fill="#000000" opacity="1.000000" stroke="none" 
	d="
M121.340347,351.445862 
	C117.488258,350.570465 114.195587,351.158997 110.657898,352.076050 
	C106.596703,353.128876 103.606277,351.013123 102.648506,346.617676 
	C101.931976,343.329407 101.903534,340.009064 101.926987,336.672882 
	C101.946800,333.854858 102.146866,330.979492 99.727402,328.749115 
	C105.701378,326.696716 106.894653,327.448303 106.951988,333.222839 
	C106.981689,336.213501 106.645164,339.205963 106.584480,342.199860 
	C106.523705,345.198944 107.007095,348.224854 110.673225,348.528442 
	C114.227417,348.822723 116.511452,346.458344 116.603226,343.118988 
	C116.740028,338.141937 118.397484,332.842468 114.294373,328.396332 
	C120.785934,327.107086 121.260010,327.438721 121.336441,333.075195 
	C121.370331,335.574371 121.442070,338.079254 121.319153,340.572815 
	C121.150047,344.003387 121.354332,347.232910 124.679459,349.159790 
	C123.873871,350.544678 122.770721,350.935059 121.340347,351.445862 
z"/>
<path fill="#000000" opacity="1.000000" stroke="none" 
	d="
M298.946899,344.584015 
	C295.160858,351.763184 290.419800,353.945129 284.766235,351.411743 
	C279.129822,348.886047 276.394440,341.592072 278.703369,335.244904 
	C281.047272,328.801453 285.990662,325.979858 291.854523,327.738464 
	C297.933044,329.561462 300.758453,336.003601 298.946899,344.584015 
M294.749237,343.409912 
	C295.598511,340.767639 295.170990,338.140686 294.361694,335.625031 
	C293.444031,332.772675 291.545135,330.576111 288.370178,330.501312 
	C284.932861,330.420319 283.700897,333.095490 282.833435,335.902130 
	C282.022461,338.526093 282.198517,341.098419 283.219147,343.644470 
	C284.309723,346.364929 285.655914,348.758972 289.071869,348.843811 
	C292.313751,348.924286 293.741516,346.867065 294.749237,343.409912 
z"/>
<path fill="#000000" opacity="1.000000" stroke="none" 
	d="
M214.331421,328.519012 
	C216.183426,330.409119 217.499771,332.408386 216.669464,334.561462 
	C215.774292,336.882751 213.236450,335.896210 211.348511,336.180878 
	C207.945419,336.694031 202.564117,334.014618 203.257477,341.239319 
	C203.765610,346.534149 206.976440,348.608734 213.358292,347.549377 
	C214.424911,347.372314 215.509659,346.456055 216.565842,347.578613 
	C213.830154,352.154602 208.910629,353.620178 204.418732,351.202301 
	C198.963486,348.265839 197.024826,340.417877 200.047806,333.507843 
	C202.573715,327.733917 207.716705,325.805817 214.331421,328.519012 
M209.207062,330.159271 
	C207.580734,330.200928 205.948730,330.233673 205.343689,332.668854 
	C207.125275,332.668854 208.699371,333.016937 210.020004,332.586792 
	C211.975235,331.950043 211.063980,330.992310 209.207062,330.159271 
z"/>
<path fill="#000000" opacity="1.000000" stroke="none" 
	d="
M178.990570,332.243042 
	C184.207504,326.525055 190.127716,325.450012 195.122574,329.001190 
	C196.428024,329.929321 197.618591,330.946289 196.320129,332.620483 
	C195.262466,333.984222 193.931381,333.668762 192.901108,332.562897 
	C190.395493,329.873352 187.379593,328.843414 184.647446,331.532166 
	C181.371597,334.755981 180.404175,338.941589 182.207260,343.445679 
	C183.632385,347.005676 186.299728,348.457855 190.069138,348.108612 
	C191.808578,347.947510 193.574387,346.965973 195.634140,348.329803 
	C194.051010,351.746918 191.047745,352.212494 187.893448,352.301636 
	C183.916016,352.414062 180.768173,350.822479 178.807388,347.316315 
	C176.079926,342.439148 176.239090,337.492340 178.990570,332.243042 
z"/>
<path fill="#000000" opacity="1.000000" stroke="none" 
	d="
M304.134979,344.500061 
	C303.418182,339.122864 305.734894,333.694275 301.559235,329.391479 
	C303.717712,327.472137 305.786560,325.632477 307.995361,323.668396 
	C308.876526,326.281494 311.164612,328.160675 316.263062,328.810822 
	C305.307343,332.456787 310.032715,340.087860 309.287903,345.967285 
	C308.704132,350.575500 313.020508,348.697266 315.872864,349.194824 
	C313.569427,352.416168 310.987061,352.670990 308.373993,352.078979 
	C304.620758,351.228699 304.627167,347.887848 304.134979,344.500061 
z"/>
<path fill="#000000" opacity="1.000000" stroke="none" 
	d="
M136.643127,342.433807 
	C134.515900,340.293274 132.351929,338.612305 130.837875,336.471649 
	C128.874924,333.696320 129.097183,330.760803 132.013077,328.551788 
	C134.898376,326.365997 140.471893,326.588135 142.178329,328.913208 
	C143.277100,330.410309 143.395752,331.952942 141.877991,333.310913 
	C141.500214,333.253387 141.092636,333.316437 140.897232,333.141937 
	C139.201721,331.627716 137.857483,327.955811 135.102264,330.746796 
	C132.719635,333.160370 135.461319,335.185425 137.269409,336.885956 
	C138.118286,337.684357 138.999329,338.448517 139.865753,339.228241 
	C142.835770,341.901123 144.724091,345.085876 142.395050,348.893463 
	C140.042725,352.739136 136.055145,352.826569 132.138718,351.916351 
	C129.244904,351.243805 127.940292,349.454254 129.507233,346.113770 
	C132.189667,347.381897 134.208511,351.994507 137.800735,348.346527 
	C139.754044,346.362915 138.586212,344.360718 136.643127,342.433807 
z"/>
<path fill="#000000" opacity="1.000000" stroke="none" 
	d="
M148.721222,326.621826 
	C150.109940,325.479797 150.437820,323.744171 152.553436,323.219849 
	C152.751678,327.090454 155.939224,327.834900 159.601288,329.179840 
	C151.264099,330.756622 153.483582,336.713013 153.340683,341.616760 
	C153.213043,345.997223 152.482086,350.920990 160.330963,349.117859 
	C158.094604,352.522675 155.486694,352.587585 152.912308,352.083710 
	C150.299774,351.572327 149.045944,349.475647 148.887436,347.005127 
	C148.654221,343.370239 148.702789,339.713837 148.724579,336.067169 
	C148.740433,333.413483 149.043320,330.708099 145.978210,329.667206 
	C146.361053,327.931213 147.662048,327.641083 148.721222,326.621826 
z"/>
<path fill="#000000" opacity="1.000000" stroke="none" 
	d="
M354.446350,328.450623 
	C355.610046,333.206573 354.921204,337.702362 355.068665,342.173157 
	C355.166290,345.134613 354.768951,348.178528 358.436371,350.432892 
	C354.274414,351.848480 351.096832,351.361786 347.806885,350.995117 
	C351.889984,343.806458 351.974731,336.842834 347.900635,329.291687 
	C349.566315,328.047119 351.612579,327.094147 354.446350,328.450623 
z"/>
<path fill="#000000" opacity="1.000000" stroke="none" 
	d="
M166.634476,327.938873 
	C169.441544,327.485718 170.363220,328.663574 170.346786,330.935547 
	C170.322769,334.253326 170.418396,337.572723 170.351700,340.889191 
	C170.281479,344.381256 170.056351,347.877655 174.109253,350.516846 
	C170.058334,351.833557 166.895493,351.387573 163.609467,350.934784 
	C166.949753,343.767090 166.835358,336.794037 163.787964,328.814331 
	C163.887650,328.390350 165.312576,328.574646 166.634476,327.938873 
z"/>
<path fill="#000000" opacity="1.000000" stroke="none" 
	d="
M420.936981,309.082184 
	C423.161102,308.290558 425.211029,307.735657 426.729736,309.586151 
	C428.823639,312.137482 426.032379,314.067444 425.218201,316.246674 
	C427.520660,317.096832 429.437500,316.732483 431.862854,316.278229 
	C430.255157,314.041840 429.607788,311.667755 429.097626,309.208710 
	C430.885620,307.699188 432.713745,307.849396 434.695831,308.866638 
	C434.795685,309.321350 435.139893,309.930817 434.962097,310.228607 
	C433.348541,312.931061 437.908020,316.230316 434.422424,318.450989 
	C431.345917,320.411011 427.618408,318.935272 424.201385,319.319611 
	C423.100555,319.443481 421.947083,319.099579 420.849396,318.973328 
	C419.586517,315.530243 424.064301,314.832520 423.823425,311.947479 
	C421.853455,310.047180 419.883453,312.564148 417.928436,312.093262 
	C417.442352,309.080383 417.442352,309.080383 420.936981,309.082184 
z"/>
<path fill="#000000" opacity="1.000000" stroke="none" 
	d="
M353.949799,315.323181 
	C354.318787,317.927216 353.481567,319.381134 351.062378,318.850433 
	C349.619995,318.534027 348.905121,317.091309 349.504852,315.715790 
	C350.443024,313.564209 352.011292,313.269135 353.949799,315.323181 
z"/>
<path fill="#000000" opacity="1.000000" stroke="none" 
	d="
M169.783417,315.341370 
	C170.213440,318.027618 169.163483,319.313416 166.844193,318.803864 
	C165.454269,318.498444 164.594482,317.089264 165.257431,315.676971 
	C166.248611,313.565460 167.842941,313.287994 169.783417,315.341370 
z"/>
</svg>